<svg xmlns="http://www.w3.org/2000/svg" xmlns:xlink="http://www.w3.org/1999/xlink" version="1.1" width="256" height="256" viewBox="0 0 256 256" xml:space="preserve">

<defs>
</defs>
<g style="stroke: none; stroke-width: 0; stroke-dasharray: none; stroke-linecap: butt; stroke-linejoin: miter; stroke-miterlimit: 10; fill: none; fill-rule: nonzero; opacity: 1;" transform="translate(1.4065934065934016 1.4065934065934016) scale(2.81 2.81)" >
	<path d="M 54.572 90 H 9.758 C 4.377 90 0 85.623 0 80.242 V 9.758 C 0 4.377 4.377 0 9.758 0 h 70.484 C 85.623 0 90 4.377 90 9.758 v 46.829 c 0 1.657 -1.343 3 -3 3 s -3 -1.343 -3 -3 V 9.758 C 84 7.686 82.314 6 80.242 6 H 9.758 C 7.686 6 6 7.686 6 9.758 v 70.484 C 6 82.314 7.686 84 9.758 84 h 44.814 c 1.657 0 3 1.343 3 3 S 56.229 90 54.572 90 z" style="stroke: none; stroke-width: 1; stroke-dasharray: none; stroke-linecap: butt; stroke-linejoin: miter; stroke-miterlimit: 10; fill: rgb(0,0,0); fill-rule: nonzero; opacity: 1;" transform=" matrix(1 0 0 1 0 0) " stroke-linecap="round" />
	<path d="M 71.459 25.091 H 18.541 c -1.657 0 -3 -1.343 -3 -3 s 1.343 -3 3 -3 h 52.918 c 1.657 0 3 1.343 3 3 S 73.116 25.091 71.459 25.091 z" style="stroke: none; stroke-width: 1; stroke-dasharray: none; stroke-linecap: butt; stroke-linejoin: miter; stroke-miterlimit: 10; fill: rgb(0,0,0); fill-rule: nonzero; opacity: 1;" transform=" matrix(1 0 0 1 0 0) " stroke-linecap="round" />
	<path d="M 71.459 40.364 H 18.541 c -1.657 0 -3 -1.343 -3 -3 s 1.343 -3 3 -3 h 52.918 c 1.657 0 3 1.343 3 3 S 73.116 40.364 71.459 40.364 z" style="stroke: none; stroke-width: 1; stroke-dasharray: none; stroke-linecap: butt; stroke-linejoin: miter; stroke-miterlimit: 10; fill: rgb(0,0,0); fill-rule: nonzero; opacity: 1;" transform=" matrix(1 0 0 1 0 0) " stroke-linecap="round" />
	<path d="M 33.277 55.637 H 18.541 c -1.657 0 -3 -1.343 -3 -3 s 1.343 -3 3 -3 h 14.736 c 1.657 0 3 1.343 3 3 S 34.934 55.637 33.277 55.637 z" style="stroke: none; stroke-width: 1; stroke-dasharray: none; stroke-linecap: butt; stroke-linejoin: miter; stroke-miterlimit: 10; fill: rgb(0,0,0); fill-rule: nonzero; opacity: 1;" transform=" matrix(1 0 0 1 0 0) " stroke-linecap="round" />
	<path d="M 42.823 70.909 H 18.541 c -1.657 0 -3 -1.343 -3 -3 s 1.343 -3 3 -3 h 24.282 c 1.657 0 3 1.343 3 3 S 44.479 70.909 42.823 70.909 z" style="stroke: none; stroke-width: 1; stroke-dasharray: none; stroke-linecap: butt; stroke-linejoin: miter; stroke-miterlimit: 10; fill: rgb(0,0,0); fill-rule: nonzero; opacity: 1;" transform=" matrix(1 0 0 1 0 0) " stroke-linecap="round" />
	<path d="M 87.748 72.927 L 68.666 53.845 c -1.408 -1.408 -3.158 -2.46 -5.063 -3.042 l -10.006 -3.057 c -1.662 -0.513 -3.457 -0.062 -4.685 1.167 c -1.229 1.229 -1.676 3.023 -1.168 4.684 l 3.058 10.007 c 0.582 1.904 1.634 3.654 3.042 5.063 l 19.082 19.082 C 74.427 89.25 76.4 90 78.372 90 c 1.973 0 3.945 -0.75 5.446 -2.252 l 3.93 -3.93 C 90.751 80.815 90.751 75.93 87.748 72.927 z" style="stroke: none; stroke-width: 1; stroke-dasharray: none; stroke-linecap: butt; stroke-linejoin: miter; stroke-miterlimit: 10; fill: rgb(0,0,0); fill-rule: nonzero; opacity: 1;" transform=" matrix(1 0 0 1 0 0) " stroke-linecap="round" />
</g>
</svg>